<svg width="120" height="36" viewBox="0 0 120 36" fill="none" xmlns="http://www.w3.org/2000/svg">
<path d="M95.1748 34.6508V0H101.583V19.9361L110.839 9.96803H119.952L108.323 21.455L120 34.6508H111.503L101.583 22.9265V34.6508H95.1748Z" fill="#DDFE55"/>
<path fill-rule="evenodd" clip-rule="evenodd" d="M86.3636 9.96806V34.6508H92.7717V9.96806H86.3636Z" fill="#DDFE55"/>
<path d="M86.7908 6.83525C87.5503 7.56307 88.468 7.92699 89.5439 7.92699C90.6515 7.92699 91.5692 7.56307 92.297 6.83525C93.0248 6.10743 93.3887 5.20556 93.3887 4.12964C93.3887 3.11702 93.0248 2.24679 92.297 1.51897C91.5692 0.759496 90.6515 0.379761 89.5439 0.379761C88.468 0.379761 87.5503 0.759496 86.7908 1.51897C86.063 2.24679 85.6991 3.11702 85.6991 4.12964C85.6991 5.17391 86.063 6.07578 86.7908 6.83525Z" fill="#DDFE55"/>
<path d="M79.9906 34.6508C77.5539 34.6508 75.6869 34.0495 74.3895 32.847C73.0921 31.6445 72.4433 29.6984 72.4433 27.0086V15.4267H68.9783V9.96801H72.4433V4.984L78.8514 4.31946V9.96801H84.1392V15.4267H78.8514V26.6763C78.8514 28.1953 79.5159 28.9547 80.845 28.9547H84.1392V34.6508H79.9906Z" fill="#DDFE55"/>
<path d="M44.4414 34.6508V0H50.8494V19.9361L60.1055 9.96803H69.2191L57.5897 21.455L69.2666 34.6508H60.77L50.8494 22.9265V34.6508H44.4414Z" fill="#DDFE55"/>
<path d="M28.8121 34.6508V9.96804H35.0303V14.6673C35.4417 12.8952 36.2802 11.5503 37.546 10.6326C38.8118 9.68324 40.5206 9.27186 42.6724 9.39844V15.4267H41.7706C39.9352 15.4267 38.3846 16.0121 37.1188 17.183C35.853 18.3538 35.2202 19.9677 35.2202 22.0246V34.6508H28.8121Z" fill="#DDFE55"/>
<path d="M12.199 35.2679C9.95221 35.2679 7.89532 34.6983 6.02829 33.5591C4.1929 32.3882 2.72143 30.8376 1.61387 28.9073C0.537957 26.9454 0 24.7777 0 22.4044C0 20.6323 0.316445 18.9709 0.949336 17.4203C1.58223 15.8381 2.45245 14.4616 3.56001 13.2907C4.66757 12.0882 5.94918 11.1547 7.40482 10.4902C8.89212 9.79401 10.4902 9.44592 12.199 9.44592C14.3508 9.44592 16.028 9.8573 17.2305 10.6801C18.4329 11.4712 19.3665 12.5313 20.031 13.8603V9.96806H26.3916V34.6508H20.1734V30.6161C19.5089 32.0085 18.5595 33.1319 17.3254 33.9863C16.1229 34.8407 14.4141 35.2679 12.199 35.2679ZM13.2432 29.4769C14.6672 29.4769 15.8856 29.1605 16.8982 28.5276C17.9425 27.863 18.7494 26.9928 19.319 25.9169C19.8886 24.841 20.1734 23.6701 20.1734 22.4044C20.1734 21.1069 19.8886 19.9203 19.319 18.8444C18.7494 17.7684 17.9425 16.8982 16.8982 16.2337C15.8856 15.5691 14.6672 15.2369 13.2432 15.2369C11.8825 15.2369 10.68 15.5691 9.63576 16.2337C8.62314 16.8666 7.83203 17.721 7.26242 18.7969C6.69282 19.8728 6.40802 21.0595 6.40802 22.3569C6.40802 23.591 6.69282 24.7619 7.26242 25.8694C7.83203 26.9454 8.62314 27.8156 9.63576 28.4801C10.68 29.1447 11.8825 29.4769 13.2432 29.4769Z" fill="#DDFE55"/>
</svg>
