<svg width="320" height="320" viewBox="0 0 320 320" fill="none" xmlns="http://www.w3.org/2000/svg">
<rect width="320" height="320" rx="64" fill="#012233"/>
<path d="M153.504 244C138.861 244 125.456 240.294 113.288 232.882C101.326 225.265 91.7362 215.176 84.518 202.618C77.506 189.853 74 175.75 74 160.309C74 148.779 76.0623 137.971 80.187 127.882C84.3117 117.588 89.9832 108.632 97.2014 101.015C104.42 93.1912 112.772 87.1176 122.259 82.7941C131.952 78.2647 142.367 76 153.504 76C167.528 76 178.458 78.6765 186.295 84.0294C194.132 89.1765 200.216 96.0735 204.547 104.721V79.3971H246V239.985H205.475V213.735C201.144 222.794 194.957 230.103 186.914 235.662C179.077 241.221 167.94 244 153.504 244ZM160.309 206.324C169.59 206.324 177.53 204.265 184.129 200.147C190.935 195.824 196.194 190.162 199.906 183.162C203.619 176.162 205.475 168.544 205.475 160.309C205.475 151.868 203.619 144.147 199.906 137.147C196.194 130.147 190.935 124.485 184.129 120.162C177.53 115.838 169.59 113.676 160.309 113.676C151.441 113.676 143.604 115.838 136.799 120.162C130.199 124.279 125.043 129.838 121.331 136.838C117.619 143.838 115.763 151.559 115.763 160C115.763 168.029 117.619 175.647 121.331 182.853C125.043 189.853 130.199 195.515 136.799 199.838C143.604 204.162 151.441 206.324 160.309 206.324Z" fill="#DDFE55"/>
</svg>
